# xmcd
#
# Track frame offsets:
#	150
#	16829
#	38463
#	53250
#	70759
#	91663
#	110875
#	132310
#	153025
#	173000
#	193017
#	209048
#
# Disc length: 3061 seconds
# Revision: 0
# Processed by: cddbd v1.5.2PL0 Copyright (c) Steve Scherf et al.
# Submitted via: dBpowerAMP V12.0
#
DISCID=910bf30c
DTITLE=Nawfel - Nawfel [dBP-LITE02-1-FLAC@]
DYEAR=1999
DGENRE=Blues
TTITLE0=Big Bird
TTITLE1=Why Can't We Live Together
TTITLE2=Jokes on You
TTITLE3=May This Be Love
TTITLE4=Go Back Home
TTITLE5=Rock Steady
TTITLE6=I Want to Take You Higher
TTITLE7=Dream On
TTITLE8=Mas y Mas
TTITLE9=Summer Song
TTITLE10=I Get Lifted
TTITLE11=Hook Me Up
EXTD=
EXTT0=
EXTT1=
EXTT2=
EXTT3=
EXTT4=
EXTT5=
EXTT6=
EXTT7=
EXTT8=
EXTT9=
EXTT10=
EXTT11=
PLAYORDER=
